<svg width="24" height="24" viewBox="0 0 24 24" fill="none" xmlns="http://www.w3.org/2000/svg">
  <path d="M7 11C7 9.89543 7.89543 9 9 9H15C16.1046 9 17 9.89543 17 11V16C17 18.7614 14.7614 21 12 21V21C9.23858 21 7 18.7614 7 16V11Z" stroke="black" stroke-width="2"/>
  <path d="M12 9V21" stroke="black" stroke-width="2"/>
  <path d="M9 9V7C9 5.34315 10.3431 4 12 4V4C13.6569 4 15 5.34315 15 7V9" stroke="black" stroke-width="2"/>
  <path d="M7 12H3" stroke="black" stroke-width="2" stroke-linecap="round"/>
  <path d="M21 12H17" stroke="black" stroke-width="2" stroke-linecap="round"/>
  <path d="M7 16L4 18" stroke="black" stroke-width="2" stroke-linecap="round"/>
  <path d="M20 18L17 16" stroke="black" stroke-width="2" stroke-linecap="round"/>
  <path d="M9.5 4.5L8 3" stroke="black" stroke-width="2" stroke-linecap="round"/>
  <path d="M14.5 4.5L16 3" stroke="black" stroke-width="2" stroke-linecap="round"/>
</svg>
  